# xmcd
#
# Track frame offsets:
#   150
#   119301
#   132939
#   146365
#   158968
#   170961
#   181548
#   193010
#   210840
#   224093
#   238952
#   251963
#   265614
#   279762
#   294763
#   312385
#   327442
#
# Disc length: 4555 seconds
#
# Revision: 1
# Processed by: cddbd v1.5.1PL0 Copyright (c) Steve Scherf et al.
# Submitted via: Media_Universe 3.0
#
DISCID=0411c911
DTITLE=John Rowles and Englebert Humperdinck - The Very Best Of John Rowles And Englebert Humperdinck
DYEAR=1900
DGENRE=Country
TTITLE0=Humperdinck Disc 2
TTITLE1=Cheryl Moana Marie
TTITLE2=Not A Word To Mary
TTITLE3=If I Only Had Time
TTITLE4=What Greater Love
TTITLE5=I Must Have Been Out Of My Mind
TTITLE6=Maccachusetts
TTITLE7=Ive Lost That Loving Feeling
TTITLE8=Salty Tears
TTITLE9=Release Me
TTITLE10=There Goes My Everything
TTITLE11=The Last Waltz
TTITLE12=Am I That Easy To Forget
TTITLE13=A Man Without Love
TTITLE14=After The Lovin
TTITLE15=Winterworld Of Love
TTITLE16=Les Bicycettes De Belsize
EXTD=
EXTT0=
EXTT1=
EXTT2=
EXTT3=
EXTT4=
EXTT5=
EXTT6=
EXTT7=
EXTT8=
EXTT9=
EXTT10=
EXTT11=
EXTT12=
EXTT13=
EXTT14=
EXTT15=
EXTT16=
PLAYORDER=
